<?xml version="1.0" encoding="iso-8859-1"?>
<!-- Generator: Adobe Illustrator 19.0.0, SVG Export Plug-In . SVG Version: 6.00 Build 0)  -->
<svg version="1.1" id="Capa_1" xmlns="http://www.w3.org/2000/svg" xmlns:xlink="http://www.w3.org/1999/xlink" x="0px" y="0px"
	 viewBox="0 0 512 512" style="enable-background:new 0 0 512 512;" xml:space="preserve">
<g>
	<path style="fill:#CF648C;" d="M112.814,416.582h43.39v60.746h-43.39V416.582z"/>
	<path style="fill:#CF648C;" d="M269.017,416.582h43.39v60.746h-43.39V416.582z"/>
</g>
<path style="fill:#A67C52;" d="M490.305,260.379c-12.375,0.373-22.111,10.709-21.738,23.083c0.009,0.304,0.026,0.599,0.043,0.902
	v2.048h-34.712v17.356h34.712v17.356h17.356v-17.356h4.339c11.984,0,21.695-9.711,21.695-21.695
	C512,270.089,502.289,260.379,490.305,260.379z M490.305,286.412h-4.339v-2.048c0-3.202,1.137-6.63,4.339-6.63
	c2.395,0,4.339,1.944,4.339,4.339C494.644,284.469,492.7,286.412,490.305,286.412z"/>
<path style="fill:#FF7BAC;" d="M242.983,130.209h-34.712c-82.484-0.017-153.591,58.03-170.088,138.847H26.034
	C11.655,269.056,0,280.711,0,295.09v52.068c0,14.379,11.655,26.034,26.034,26.034h18.909c18.814,42.21,60.702,69.406,106.921,69.424
	h195.254c56.537,0.286,102.869-44.796,104.136-101.315c1.553-115.018-90.416-209.512-205.434-211.074
	C244.875,130.218,243.929,130.209,242.983,130.209z"/>
<path style="fill:#CF648C;" d="M159.475,137.282c-74.136-29.852-124.763-19.335-124.763,10.283c0,24.975,17.92,49.872,28.004,61.917
	C85.296,174.623,119.626,149.006,159.475,137.282z"/>
<path style="fill:#FF7BAC;" d="M312.407,407.904v86.78h69.424v-78.102"/>
<path style="fill:#EEB83B;" d="M138.847,138.887c-0.026,32.673,13.147,63.974,36.543,86.78h169.897
	c47.972-46.913,48.822-123.835,1.909-171.806S223.362,5.038,175.39,51.951C152.003,74.835,138.83,106.171,138.847,138.887z"/>
<path style="fill:#F2F2F2;" d="M26.034,295.09H43.39v17.356H26.034V295.09z"/>
<path style="fill:#FF7BAC;" d="M156.203,407.904v86.78h69.424v-78.102"/>
<circle style="fill:#FED856;" cx="260.339" cy="138.852" r="86.78"/>
<path style="fill:#F2F2F2;" d="M86.78,234.345h17.356v17.356H86.78V234.345z"/>
<g>
	<path style="fill:#CD9829;" d="M269.017,96.755v-9.936h-17.356v9.936c-13.017,4.053-20.28,17.885-16.236,30.894
		c2.005,6.43,6.543,11.767,12.574,14.77l16.913,8.452c3.662,1.822,5.163,6.266,3.341,9.936c-1.25,2.525-3.827,4.122-6.647,4.113
		h-2.534c-4.087-0.009-7.402-3.324-7.411-7.411v-1.267h-17.356v1.267c0.043,10.787,7.064,20.298,17.356,23.509v9.936h17.356v-9.936
		c13.017-4.053,20.28-17.885,16.236-30.894c-2.005-6.43-6.543-11.767-12.574-14.77l-16.913-8.452
		c-3.662-1.822-5.163-6.265-3.341-9.936c1.25-2.525,3.827-4.122,6.647-4.113h2.534c4.087,0.009,7.402,3.324,7.411,7.411v1.267
		h17.356v-1.267C286.329,109.486,279.309,99.975,269.017,96.755z"/>
	<path style="fill:#CD9829;" d="M199.593,130.209h17.356v17.356h-17.356V130.209z"/>
	<path style="fill:#CD9829;" d="M303.729,130.209h17.356v17.356h-17.356V130.209z"/>
</g>
<path style="fill:#CF648C;" d="M138.847,216.989h242.983v17.356H138.847V216.989z"/>
<g>
</g>
<g>
</g>
<g>
</g>
<g>
</g>
<g>
</g>
<g>
</g>
<g>
</g>
<g>
</g>
<g>
</g>
<g>
</g>
<g>
</g>
<g>
</g>
<g>
</g>
<g>
</g>
<g>
</g>
</svg>
